<?xml version="1.0" standalone="no"?><!DOCTYPE svg PUBLIC "-//W3C//DTD SVG 1.1//EN" "http://www.w3.org/Graphics/SVG/1.1/DTD/svg11.dtd"><svg t="1616302186668" class="icon" viewBox="0 0 1024 1024" version="1.1" xmlns="http://www.w3.org/2000/svg" p-id="2542" xmlns:xlink="http://www.w3.org/1999/xlink" width="16" height="16"><defs><style type="text/css"></style></defs><path d="M336 640h80V384h-80v256z m-144 0h80V384h-80v256z m288 0h80V384h-80v256z m409.408-288H848v-8c0-57.344-46.656-104-104-104h-592A104.128 104.128 0 0 0 48 344v336C48 737.344 94.656 784 152 784h592c57.344 0 104-46.656 104-104V672h41.408C946.752 672 992 627.312 992 569.968V456c0-57.344-45.248-104-102.592-104zM768 680c0 13.008-11.008 24-24 24h-592A24.32 24.32 0 0 1 128 680v-336c0-13.008 11.008-24 24-24h592c13.008 0 24 10.992 24 24v336z m144-110.032c0 13.008-9.6 22.032-22.592 22.032H848V432h41.408C902.4 432 912 442.992 912 456v113.968zM624 640h80V384h-80v256z" fill="#ffffff" p-id="2543"></path></svg>